<?xml version="1.0" encoding="UTF-8" standalone="no"?>
<!-- Created with Inkscape (http://www.inkscape.org/) -->

<svg
   xmlns:dc="http://purl.org/dc/elements/1.1/"
   xmlns:cc="http://creativecommons.org/ns#"
   xmlns:rdf="http://www.w3.org/1999/02/22-rdf-syntax-ns#"
   xmlns:svg="http://www.w3.org/2000/svg"
   xmlns="http://www.w3.org/2000/svg"
   xmlns:sodipodi="http://sodipodi.sourceforge.net/DTD/sodipodi-0.dtd"
   xmlns:inkscape="http://www.inkscape.org/namespaces/inkscape"
   width="180"
   height="180"
   viewBox="0 0 47.624999 47.625001"
   version="1.1"
   id="svg8"
   inkscape:version="0.92.2 5c3e80d, 2017-08-06"
   sodipodi:docname="logo.svg">
  <defs
     id="defs2" />
  <sodipodi:namedview
     id="base"
     pagecolor="#ffffff"
     bordercolor="#666666"
     borderopacity="1.0"
     inkscape:pageopacity="0.0"
     inkscape:pageshadow="2"
     inkscape:zoom="2.8284271"
     inkscape:cx="109.19802"
     inkscape:cy="98.919683"
     inkscape:document-units="mm"
     inkscape:current-layer="layer1"
     showgrid="false"
     inkscape:window-width="1366"
     inkscape:window-height="768"
     inkscape:window-x="0"
     inkscape:window-y="0"
     inkscape:window-maximized="1"
     units="px" />
  <metadata
     id="metadata5">
    <rdf:RDF>
      <cc:Work
         rdf:about="">
        <dc:format>image/svg+xml</dc:format>
        <dc:type
           rdf:resource="http://purl.org/dc/dcmitype/StillImage" />
        <dc:title></dc:title>
      </cc:Work>
    </rdf:RDF>
  </metadata>
  <g
     inkscape:label="Layer 1"
     inkscape:groupmode="layer"
     id="layer1"
     transform="translate(0,-249.37498)">
    <path
       style="opacity:1;fill:#4072af;fill-opacity:1;stroke:none;stroke-width:57.96276855;stroke-linecap:round;stroke-linejoin:round;stroke-miterlimit:4;stroke-dasharray:none;stroke-opacity:1"
       d="m 23.812512,249.64099 c -13.005247,-2.6e-4 -23.54820695,10.54258 -23.54792879,23.54791 0.0133764,6.70698 2.88258959,13.09104 7.89286319,17.54972 v -0.0252 c 1.9729246,-1.0899 3.3580946,-2.23541 4.1554826,-3.41078 0.839543,-1.21632 1.254509,-2.71636 1.254509,-4.52139 v -4.0379 l -0.118853,-17.94193 -5.9849777,0.0506 -0.3138171,-0.37931 0.3138171,-3.27978 H 18.100637 l -0.18207,20.98655 v 4.53453 c 0,2.56036 -0.588691,4.64859 -1.764303,6.28545 -0.97306,1.40598 -2.753927,2.72168 -5.057182,3.97265 3.790231,2.44782 8.20357,3.75266 12.714872,3.76353 7.195157,0.001 13.996539,-3.28559 18.464524,-8.92545 -1.710947,0.51839 -3.457575,0.84965 -5.266259,0.84965 -4.579324,0 -8.089371,-1.34528 -10.545564,-4.05079 -2.456167,-2.74748 -3.685061,-6.64503 -3.685061,-11.68254 0,-5.12044 1.286877,-9.07615 3.86799,-11.86535 2.622711,-2.78922 6.30939,-4.18179 11.055258,-4.18179 1.183199,-0.004 2.420766,0.28575 3.436764,0.4046 -4.451396,-4.86101 -10.73646,-7.63377 -17.327652,-7.64465 z m 13.394321,11.12065 c -6.327876,0 -9.500158,3.93168 -9.500158,11.79987 0,3.95521 0.819819,6.97452 2.443525,9.05593 1.623705,2.08117 3.975916,3.12325 7.056557,3.12325 3.096748,0 5.903274,-0.93563 8.441701,-2.77048 1.126555,-2.79072 1.70766,-5.77161 1.711959,-8.78131 -0.0058,-3.32101 -0.713865,-6.60307 -2.077868,-9.63098 l -0.02781,0.0138 c -2.206328,-1.8738 -4.885681,-2.80943 -8.04962,-2.80943 z"
       id="circle826"
       inkscape:connector-curvature="0"
       sodipodi:nodetypes="cccccccccccccsccccscsccccsscsccccs" />
    <g
       transform="translate(2.7132443,0.00208804)"
       id="g832"
       style="font-style:normal;font-weight:normal;font-size:2.46944427px;line-height:6.61458302px;font-family:sans-serif;letter-spacing:0px;word-spacing:0px;fill:#ffffff;fill-opacity:1;stroke:none;stroke-width:0.26458332px;stroke-linecap:butt;stroke-linejoin:miter;stroke-opacity:1"
       aria-label="jc" />
  </g>
</svg>
